<svg viewBox="-16 -32 880 192" width="880" height="192" xmlns="http://www.w3.org/2000/svg"><style>@keyframes c0{3.88%{fill:var(--c1)}3.9%,to{fill:var(--ce)}}@keyframes c1{4.94%{fill:var(--c1)}4.96%,to{fill:var(--ce)}}@keyframes c2{67.48%{fill:var(--c4)}67.5%,to{fill:var(--ce)}}@keyframes c3{67.83%{fill:var(--c4)}67.85%,to{fill:var(--ce)}}@keyframes c4{65.36%{fill:var(--c4)}65.38%,to{fill:var(--ce)}}@keyframes c5{6.35%{fill:var(--c1)}6.37%,to{fill:var(--ce)}}@keyframes c6{18.36%{fill:var(--c1)}18.38%,to{fill:var(--ce)}}@keyframes c7{56.53%{fill:var(--c3)}56.55%,to{fill:var(--ce)}}@keyframes c8{49.81%{fill:var(--c2)}49.83%,to{fill:var(--ce)}}@keyframes c9{49.46%{fill:var(--c2)}49.48%,to{fill:var(--ce)}}@keyframes ca{17.3%{fill:var(--c1)}17.32%,to{fill:var(--ce)}}@keyframes cb{53.7%{fill:var(--c3)}53.72%,to{fill:var(--ce)}}@keyframes cc{10.24%{fill:var(--c1)}10.26%,to{fill:var(--ce)}}@keyframes cd{11.3%{fill:var(--c1)}11.32%,to{fill:var(--ce)}}@keyframes ce{16.24%{fill:var(--c1)}16.26%,to{fill:var(--ce)}}@keyframes cf{51.93%{fill:var(--c2)}51.95%,to{fill:var(--ce)}}@keyframes cg{60.06%{fill:var(--c4)}60.08%,to{fill:var(--ce)}}@keyframes ch{12.36%{fill:var(--c1)}12.38%,to{fill:var(--ce)}}@keyframes ci{47.34%{fill:var(--c2)}47.36%,to{fill:var(--ce)}}@keyframes cj{47.69%{fill:var(--c2)}47.71%,to{fill:var(--ce)}}@keyframes ck{15.54%{fill:var(--c1)}15.56%,to{fill:var(--ce)}}@keyframes cl{46.99%{fill:var(--c2)}47.01%,to{fill:var(--ce)}}@keyframes cm{13.42%{fill:var(--c1)}13.44%,to{fill:var(--ce)}}@keyframes cn{46.28%{fill:var(--c2)}46.3%,to{fill:var(--ce)}}@keyframes co{14.12%{fill:var(--c1)}14.14%,to{fill:var(--ce)}}@keyframes cp{14.48%{fill:var(--c1)}14.5%,to{fill:var(--ce)}}@keyframes cq{40.27%{fill:var(--c2)}40.29%,to{fill:var(--ce)}}@keyframes cr{83.38%{fill:var(--c4)}83.4%,to{fill:var(--ce)}}@keyframes cs{82.32%{fill:var(--c4)}82.34%,to{fill:var(--ce)}}@keyframes ct{28.97%{fill:var(--c1)}28.99%,to{fill:var(--ce)}}@keyframes cu{38.86%{fill:var(--c2)}38.88%,to{fill:var(--ce)}}@keyframes cv{30.73%{fill:var(--c1)}30.75%,to{fill:var(--ce)}}@keyframes cw{82.68%{fill:var(--c4)}82.7%,to{fill:var(--ce)}}@keyframes cx{33.56%{fill:var(--c1)}33.58%,to{fill:var(--ce)}}@keyframes cy{34.97%{fill:var(--c2)}34.99%,to{fill:var(--ce)}}@keyframes cz{34.62%{fill:var(--c1)}34.64%,to{fill:var(--ce)}}@keyframes u0{3.88%{transform:scale(0,1)}3.9%,4.94%{transform:scale(.06,1)}4.96%,6.35%{transform:scale(.12,1)}10.24%,6.37%{transform:scale(.18,1)}10.26%,11.3%{transform:scale(.24,1)}11.32%,12.36%{transform:scale(.29,1)}12.38%,13.42%{transform:scale(.35,1)}13.44%,14.12%{transform:scale(.41,1)}14.14%,14.48%{transform:scale(.47,1)}14.5%,15.54%{transform:scale(.53,1)}15.56%,16.24%{transform:scale(.59,1)}16.26%,17.3%{transform:scale(.65,1)}17.32%,18.36%{transform:scale(.71,1)}18.38%,28.97%{transform:scale(.76,1)}28.99%,30.73%{transform:scale(.82,1)}30.75%,33.56%{transform:scale(.88,1)}33.58%,34.62%{transform:scale(.94,1)}34.64%,to{transform:scale(1,1)}}@keyframes u1{34.97%{transform:scale(0,1)}34.99%,38.86%{transform:scale(.1,1)}38.88%,40.27%{transform:scale(.2,1)}40.29%,46.28%{transform:scale(.3,1)}46.3%,46.99%{transform:scale(.4,1)}47.01%,47.34%{transform:scale(.5,1)}47.36%,47.69%{transform:scale(.6,1)}47.71%,49.46%{transform:scale(.7,1)}49.48%,49.81%{transform:scale(.8,1)}49.83%,51.93%{transform:scale(.9,1)}51.95%,to{transform:scale(1,1)}}@keyframes u2{53.7%{transform:scale(0,1)}53.72%,56.53%{transform:scale(.5,1)}56.55%,to{transform:scale(1,1)}}@keyframes u3{60.06%{transform:scale(0,1)}60.08%,65.36%{transform:scale(.14,1)}65.38%,67.48%{transform:scale(.29,1)}67.5%,67.83%{transform:scale(.43,1)}67.85%,82.32%{transform:scale(.57,1)}82.34%,82.68%{transform:scale(.71,1)}82.7%,83.38%{transform:scale(.86,1)}83.4%,to{transform:scale(1,1)}}@keyframes s0{0%,99.65%{transform:translate(0,-16px)}.35%{transform:translate(0,0)}2.47%{transform:translate(96px,0)}3.89%{transform:translate(96px,64px)}5.3%{transform:translate(160px,64px)}6.36%{transform:translate(160px,16px)}10.6%{transform:translate(352px,16px)}11.31%{transform:translate(352px,48px)}11.66%,48.41%{transform:translate(368px,48px)}12.01%,21.2%,50.88%{transform:translate(368px,32px)}13.07%{transform:translate(416px,32px)}13.43%,46.64%{transform:translate(416px,48px)}13.78%{transform:translate(432px,48px)}14.49%{transform:translate(432px,80px)}15.9%{transform:translate(368px,80px)}16.25%{transform:translate(368px,96px)}17.31%{transform:translate(320px,96px)}17.67%{transform:translate(320px,80px)}18.37%{transform:translate(288px,80px)}18.73%{transform:translate(288px,64px)}20.49%,48.06%{transform:translate(368px,64px)}29.68%{transform:translate(752px,32px)}30.39%{transform:translate(752px,0)}30.74%,83.04%{transform:translate(736px,0)}31.1%{transform:translate(736px,-16px)}32.86%{transform:translate(816px,-16px)}34.28%{transform:translate(816px,48px)}34.63%{transform:translate(832px,48px)}34.98%{transform:translate(832px,32px)}37.46%{transform:translate(720px,32px)}38.87%,80.57%{transform:translate(720px,96px)}39.22%{transform:translate(704px,96px)}39.58%{transform:translate(704px,80px)}40.28%{transform:translate(672px,80px)}40.64%{transform:translate(672px,64px)}46.29%{transform:translate(416px,64px)}47.35%{transform:translate(384px,48px)}47.7%{transform:translate(384px,64px)}49.47%{transform:translate(320px,48px)}49.82%{transform:translate(320px,32px)}51.59%{transform:translate(368px,0)}51.94%,60.42%{transform:translate(384px,0)}52.3%{transform:translate(384px,-16px)}53.36%{transform:translate(336px,-16px)}53.71%{transform:translate(336px,0)}54.42%{transform:translate(304px,0)}56.54%{transform:translate(304px,96px)}58.3%{transform:translate(384px,96px)}65.72%{transform:translate(144px,0)}67.84%{transform:translate(144px,96px)}82.33%{transform:translate(720px,16px)}82.69%{transform:translate(736px,16px)}97.53%{transform:translate(80px,0)}97.88%{transform:translate(80px,-16px)}}@keyframes s1{0%,99.65%{transform:translate(16px,-16px)}.35%{transform:translate(0,-16px)}.71%{transform:translate(0,0)}2.83%{transform:translate(96px,0)}4.24%{transform:translate(96px,64px)}5.65%{transform:translate(160px,64px)}6.71%{transform:translate(160px,16px)}10.95%{transform:translate(352px,16px)}11.66%{transform:translate(352px,48px)}12.01%,48.76%{transform:translate(368px,48px)}12.37%,21.55%,51.24%{transform:translate(368px,32px)}13.43%{transform:translate(416px,32px)}13.78%,47%{transform:translate(416px,48px)}14.13%{transform:translate(432px,48px)}14.84%{transform:translate(432px,80px)}16.25%{transform:translate(368px,80px)}16.61%{transform:translate(368px,96px)}17.67%{transform:translate(320px,96px)}18.02%{transform:translate(320px,80px)}18.73%{transform:translate(288px,80px)}19.08%{transform:translate(288px,64px)}20.85%,48.41%{transform:translate(368px,64px)}30.04%{transform:translate(752px,32px)}30.74%{transform:translate(752px,0)}31.1%,83.39%{transform:translate(736px,0)}31.45%{transform:translate(736px,-16px)}33.22%{transform:translate(816px,-16px)}34.63%{transform:translate(816px,48px)}34.98%{transform:translate(832px,48px)}35.34%{transform:translate(832px,32px)}37.81%{transform:translate(720px,32px)}39.22%,80.92%{transform:translate(720px,96px)}39.58%{transform:translate(704px,96px)}39.93%{transform:translate(704px,80px)}40.64%{transform:translate(672px,80px)}40.99%{transform:translate(672px,64px)}46.64%{transform:translate(416px,64px)}47.7%{transform:translate(384px,48px)}48.06%{transform:translate(384px,64px)}49.82%{transform:translate(320px,48px)}50.18%{transform:translate(320px,32px)}51.94%{transform:translate(368px,0)}52.3%,60.78%{transform:translate(384px,0)}52.65%{transform:translate(384px,-16px)}53.71%{transform:translate(336px,-16px)}54.06%{transform:translate(336px,0)}54.77%{transform:translate(304px,0)}56.89%{transform:translate(304px,96px)}58.66%{transform:translate(384px,96px)}66.08%{transform:translate(144px,0)}68.2%{transform:translate(144px,96px)}82.69%{transform:translate(720px,16px)}83.04%{transform:translate(736px,16px)}97.88%{transform:translate(80px,0)}98.23%{transform:translate(80px,-16px)}}@keyframes s2{0%,99.65%{transform:translate(32px,-16px)}.71%{transform:translate(0,-16px)}1.06%{transform:translate(0,0)}3.18%{transform:translate(96px,0)}4.59%{transform:translate(96px,64px)}6.01%{transform:translate(160px,64px)}7.07%{transform:translate(160px,16px)}11.31%{transform:translate(352px,16px)}12.01%{transform:translate(352px,48px)}12.37%,49.12%{transform:translate(368px,48px)}12.72%,21.91%,51.59%{transform:translate(368px,32px)}13.78%{transform:translate(416px,32px)}14.13%,47.35%{transform:translate(416px,48px)}14.49%{transform:translate(432px,48px)}15.19%{transform:translate(432px,80px)}16.61%{transform:translate(368px,80px)}16.96%{transform:translate(368px,96px)}18.02%{transform:translate(320px,96px)}18.37%{transform:translate(320px,80px)}19.08%{transform:translate(288px,80px)}19.43%{transform:translate(288px,64px)}21.2%,48.76%{transform:translate(368px,64px)}30.39%{transform:translate(752px,32px)}31.1%{transform:translate(752px,0)}31.45%,83.75%{transform:translate(736px,0)}31.8%{transform:translate(736px,-16px)}33.57%{transform:translate(816px,-16px)}34.98%{transform:translate(816px,48px)}35.34%{transform:translate(832px,48px)}35.69%{transform:translate(832px,32px)}38.16%{transform:translate(720px,32px)}39.58%,81.27%{transform:translate(720px,96px)}39.93%{transform:translate(704px,96px)}40.28%{transform:translate(704px,80px)}40.99%{transform:translate(672px,80px)}41.34%{transform:translate(672px,64px)}47%{transform:translate(416px,64px)}48.06%{transform:translate(384px,48px)}48.41%{transform:translate(384px,64px)}50.18%{transform:translate(320px,48px)}50.53%{transform:translate(320px,32px)}52.3%{transform:translate(368px,0)}52.65%,61.13%{transform:translate(384px,0)}53%{transform:translate(384px,-16px)}54.06%{transform:translate(336px,-16px)}54.42%{transform:translate(336px,0)}55.12%{transform:translate(304px,0)}57.24%{transform:translate(304px,96px)}59.01%{transform:translate(384px,96px)}66.43%{transform:translate(144px,0)}68.55%{transform:translate(144px,96px)}83.04%{transform:translate(720px,16px)}83.39%{transform:translate(736px,16px)}98.23%{transform:translate(80px,0)}98.59%{transform:translate(80px,-16px)}}@keyframes s3{0%,99.65%{transform:translate(48px,-16px)}1.06%{transform:translate(0,-16px)}1.41%{transform:translate(0,0)}3.53%{transform:translate(96px,0)}4.95%{transform:translate(96px,64px)}6.36%{transform:translate(160px,64px)}7.42%{transform:translate(160px,16px)}11.66%{transform:translate(352px,16px)}12.37%{transform:translate(352px,48px)}12.72%,49.47%{transform:translate(368px,48px)}13.07%,22.26%,51.94%{transform:translate(368px,32px)}14.13%{transform:translate(416px,32px)}14.49%,47.7%{transform:translate(416px,48px)}14.84%{transform:translate(432px,48px)}15.55%{transform:translate(432px,80px)}16.96%{transform:translate(368px,80px)}17.31%{transform:translate(368px,96px)}18.37%{transform:translate(320px,96px)}18.73%{transform:translate(320px,80px)}19.43%{transform:translate(288px,80px)}19.79%{transform:translate(288px,64px)}21.55%,49.12%{transform:translate(368px,64px)}30.74%{transform:translate(752px,32px)}31.45%{transform:translate(752px,0)}31.8%,84.1%{transform:translate(736px,0)}32.16%{transform:translate(736px,-16px)}33.92%{transform:translate(816px,-16px)}35.34%{transform:translate(816px,48px)}35.69%{transform:translate(832px,48px)}36.04%{transform:translate(832px,32px)}38.52%{transform:translate(720px,32px)}39.93%,81.63%{transform:translate(720px,96px)}40.28%{transform:translate(704px,96px)}40.64%{transform:translate(704px,80px)}41.34%{transform:translate(672px,80px)}41.7%{transform:translate(672px,64px)}47.35%{transform:translate(416px,64px)}48.41%{transform:translate(384px,48px)}48.76%{transform:translate(384px,64px)}50.53%{transform:translate(320px,48px)}50.88%{transform:translate(320px,32px)}52.65%{transform:translate(368px,0)}53%,61.48%{transform:translate(384px,0)}53.36%{transform:translate(384px,-16px)}54.42%{transform:translate(336px,-16px)}54.77%{transform:translate(336px,0)}55.48%{transform:translate(304px,0)}57.6%{transform:translate(304px,96px)}59.36%{transform:translate(384px,96px)}66.78%{transform:translate(144px,0)}68.9%{transform:translate(144px,96px)}83.39%{transform:translate(720px,16px)}83.75%{transform:translate(736px,16px)}98.59%{transform:translate(80px,0)}98.94%{transform:translate(80px,-16px)}}:root{--cb:#1b1f230a;--cs:purple;--ce:#ebedf0;--c0:#ebedf0;--c1:#9be9a8;--c2:#40c463;--c3:#30a14e;--c4:#216e39}.c{shape-rendering:geometricPrecision;rx:2;ry:2;fill:var(--ce);stroke-width:1px;stroke:var(--cb);animation:none 28300ms linear infinite}.c.c0,.c.c1{fill:var(--c1);animation-name:c0}.c.c1{animation-name:c1}.c.c2,.c.c3,.c.c4{fill:var(--c4);animation-name:c2}.c.c3,.c.c4{animation-name:c3}.c.c4{animation-name:c4}.c.c5,.c.c6{fill:var(--c1);animation-name:c5}.c.c6{animation-name:c6}.c.c7{fill:var(--c3);animation-name:c7}.c.c8,.c.c9{fill:var(--c2);animation-name:c8}.c.c9{animation-name:c9}.c.ca{fill:var(--c1);animation-name:ca}.c.cb{fill:var(--c3);animation-name:cb}.c.cc,.c.cd,.c.ce{fill:var(--c1);animation-name:cc}.c.cd,.c.ce{animation-name:cd}.c.ce{animation-name:ce}.c.cf{fill:var(--c2);animation-name:cf}.c.cg{fill:var(--c4);animation-name:cg}.c.ch{fill:var(--c1);animation-name:ch}.c.ci,.c.cj{fill:var(--c2);animation-name:ci}.c.cj{animation-name:cj}.c.ck{fill:var(--c1);animation-name:ck}.c.cl{fill:var(--c2);animation-name:cl}.c.cm{fill:var(--c1);animation-name:cm}.c.cn{fill:var(--c2);animation-name:cn}.c.co,.c.cp{fill:var(--c1);animation-name:co}.c.cp{animation-name:cp}.c.cq{fill:var(--c2);animation-name:cq}.c.cr,.c.cs{fill:var(--c4);animation-name:cr}.c.cs{animation-name:cs}.c.ct{fill:var(--c1);animation-name:ct}.c.cu{fill:var(--c2);animation-name:cu}.c.cv{fill:var(--c1);animation-name:cv}.c.cw{fill:var(--c4);animation-name:cw}.c.cx{fill:var(--c1);animation-name:cx}.c.cy{fill:var(--c2);animation-name:cy}.c.cz{fill:var(--c1);animation-name:cz}.s,.u{animation:none linear 28300ms infinite}.u,.u.u0{transform-origin:0 0}.u{transform:scale(0,1)}.u.u0{fill:var(--c1);animation-name:u0}.u.u1{fill:var(--c2);animation-name:u1;transform-origin:400.4px 0}.u.u2{fill:var(--c3);animation-name:u2;transform-origin:636px 0}.u.u3{fill:var(--c4);animation-name:u3;transform-origin:683.1px 0}.s{shape-rendering:geometricPrecision;fill:var(--cs)}.s.s0{transform:translate(0,-16px);animation-name:s0}.s.s1{transform:translate(16px,-16px);animation-name:s1}.s.s2{transform:translate(32px,-16px);animation-name:s2}.s.s3{transform:translate(48px,-16px);animation-name:s3}</style><rect class="c" x="2" y="2" width="12" height="12"/><rect class="c" x="2" y="18" width="12" height="12"/><rect class="c" x="2" y="34" width="12" height="12"/><rect class="c" x="2" y="50" width="12" height="12"/><rect class="c" x="2" y="66" width="12" height="12"/><rect class="c" x="2" y="82" width="12" height="12"/><rect class="c" x="2" y="98" width="12" height="12"/><rect class="c" x="18" y="2" width="12" height="12"/><rect class="c" x="18" y="18" width="12" height="12"/><rect class="c" x="18" y="34" width="12" height="12"/><rect class="c" x="18" y="50" width="12" height="12"/><rect class="c" x="18" y="66" width="12" height="12"/><rect class="c" x="18" y="82" width="12" height="12"/><rect class="c" x="18" y="98" width="12" height="12"/><rect class="c" x="34" y="2" width="12" height="12"/><rect class="c" x="34" y="18" width="12" height="12"/><rect class="c" x="34" y="34" width="12" height="12"/><rect class="c" x="34" y="50" width="12" height="12"/><rect class="c" x="34" y="66" width="12" height="12"/><rect class="c" x="34" y="82" width="12" height="12"/><rect class="c" x="34" y="98" width="12" height="12"/><rect class="c" x="50" y="2" width="12" height="12"/><rect class="c" x="50" y="18" width="12" height="12"/><rect class="c" x="50" y="34" width="12" height="12"/><rect class="c" x="50" y="50" width="12" height="12"/><rect class="c" x="50" y="66" width="12" height="12"/><rect class="c" x="50" y="82" width="12" height="12"/><rect class="c" x="50" y="98" width="12" height="12"/><rect class="c" x="66" y="2" width="12" height="12"/><rect class="c" x="66" y="18" width="12" height="12"/><rect class="c" x="66" y="34" width="12" height="12"/><rect class="c" x="66" y="50" width="12" height="12"/><rect class="c" x="66" y="66" width="12" height="12"/><rect class="c" x="66" y="82" width="12" height="12"/><rect class="c" x="66" y="98" width="12" height="12"/><rect class="c" x="82" y="2" width="12" height="12"/><rect class="c" x="82" y="18" width="12" height="12"/><rect class="c" x="82" y="34" width="12" height="12"/><rect class="c" x="82" y="50" width="12" height="12"/><rect class="c" x="82" y="66" width="12" height="12"/><rect class="c" x="82" y="82" width="12" height="12"/><rect class="c" x="82" y="98" width="12" height="12"/><rect class="c" x="98" y="2" width="12" height="12"/><rect class="c" x="98" y="18" width="12" height="12"/><rect class="c" x="98" y="34" width="12" height="12"/><rect class="c" x="98" y="50" width="12" height="12"/><rect class="c c0" x="98" y="66" width="12" height="12"/><rect class="c" x="98" y="82" width="12" height="12"/><rect class="c" x="98" y="98" width="12" height="12"/><rect class="c" x="114" y="2" width="12" height="12"/><rect class="c" x="114" y="18" width="12" height="12"/><rect class="c" x="114" y="34" width="12" height="12"/><rect class="c" x="114" y="50" width="12" height="12"/><rect class="c" x="114" y="66" width="12" height="12"/><rect class="c" x="114" y="82" width="12" height="12"/><rect class="c" x="114" y="98" width="12" height="12"/><rect class="c" x="130" y="2" width="12" height="12"/><rect class="c" x="130" y="18" width="12" height="12"/><rect class="c" x="130" y="34" width="12" height="12"/><rect class="c" x="130" y="50" width="12" height="12"/><rect class="c" x="130" y="66" width="12" height="12"/><rect class="c" x="130" y="82" width="12" height="12"/><rect class="c" x="130" y="98" width="12" height="12"/><rect class="c" x="146" y="2" width="12" height="12"/><rect class="c" x="146" y="18" width="12" height="12"/><rect class="c" x="146" y="34" width="12" height="12"/><rect class="c" x="146" y="50" width="12" height="12"/><rect class="c c1" x="146" y="66" width="12" height="12"/><rect class="c c2" x="146" y="82" width="12" height="12"/><rect class="c c3" x="146" y="98" width="12" height="12"/><rect class="c c4" x="162" y="2" width="12" height="12"/><rect class="c c5" x="162" y="18" width="12" height="12"/><rect class="c" x="162" y="34" width="12" height="12"/><rect class="c" x="162" y="50" width="12" height="12"/><rect class="c" x="162" y="66" width="12" height="12"/><rect class="c" x="162" y="82" width="12" height="12"/><rect class="c" x="162" y="98" width="12" height="12"/><rect class="c" x="178" y="2" width="12" height="12"/><rect class="c" x="178" y="18" width="12" height="12"/><rect class="c" x="178" y="34" width="12" height="12"/><rect class="c" x="178" y="50" width="12" height="12"/><rect class="c" x="178" y="66" width="12" height="12"/><rect class="c" x="178" y="82" width="12" height="12"/><rect class="c" x="178" y="98" width="12" height="12"/><rect class="c" x="194" y="2" width="12" height="12"/><rect class="c" x="194" y="18" width="12" height="12"/><rect class="c" x="194" y="34" width="12" height="12"/><rect class="c" x="194" y="50" width="12" height="12"/><rect class="c" x="194" y="66" width="12" height="12"/><rect class="c" x="194" y="82" width="12" height="12"/><rect class="c" x="194" y="98" width="12" height="12"/><rect class="c" x="210" y="2" width="12" height="12"/><rect class="c" x="210" y="18" width="12" height="12"/><rect class="c" x="210" y="34" width="12" height="12"/><rect class="c" x="210" y="50" width="12" height="12"/><rect class="c" x="210" y="66" width="12" height="12"/><rect class="c" x="210" y="82" width="12" height="12"/><rect class="c" x="210" y="98" width="12" height="12"/><rect class="c" x="226" y="2" width="12" height="12"/><rect class="c" x="226" y="18" width="12" height="12"/><rect class="c" x="226" y="34" width="12" height="12"/><rect class="c" x="226" y="50" width="12" height="12"/><rect class="c" x="226" y="66" width="12" height="12"/><rect class="c" x="226" y="82" width="12" height="12"/><rect class="c" x="226" y="98" width="12" height="12"/><rect class="c" x="242" y="2" width="12" height="12"/><rect class="c" x="242" y="18" width="12" height="12"/><rect class="c" x="242" y="34" width="12" height="12"/><rect class="c" x="242" y="50" width="12" height="12"/><rect class="c" x="242" y="66" width="12" height="12"/><rect class="c" x="242" y="82" width="12" height="12"/><rect class="c" x="242" y="98" width="12" height="12"/><rect class="c" x="258" y="2" width="12" height="12"/><rect class="c" x="258" y="18" width="12" height="12"/><rect class="c" x="258" y="34" width="12" height="12"/><rect class="c" x="258" y="50" width="12" height="12"/><rect class="c" x="258" y="66" width="12" height="12"/><rect class="c" x="258" y="82" width="12" height="12"/><rect class="c" x="258" y="98" width="12" height="12"/><rect class="c" x="274" y="2" width="12" height="12"/><rect class="c" x="274" y="18" width="12" height="12"/><rect class="c" x="274" y="34" width="12" height="12"/><rect class="c" x="274" y="50" width="12" height="12"/><rect class="c" x="274" y="66" width="12" height="12"/><rect class="c" x="274" y="82" width="12" height="12"/><rect class="c" x="274" y="98" width="12" height="12"/><rect class="c" x="290" y="2" width="12" height="12"/><rect class="c" x="290" y="18" width="12" height="12"/><rect class="c" x="290" y="34" width="12" height="12"/><rect class="c" x="290" y="50" width="12" height="12"/><rect class="c" x="290" y="66" width="12" height="12"/><rect class="c c6" x="290" y="82" width="12" height="12"/><rect class="c" x="290" y="98" width="12" height="12"/><rect class="c" x="306" y="2" width="12" height="12"/><rect class="c" x="306" y="18" width="12" height="12"/><rect class="c" x="306" y="34" width="12" height="12"/><rect class="c" x="306" y="50" width="12" height="12"/><rect class="c" x="306" y="66" width="12" height="12"/><rect class="c" x="306" y="82" width="12" height="12"/><rect class="c c7" x="306" y="98" width="12" height="12"/><rect class="c" x="322" y="2" width="12" height="12"/><rect class="c" x="322" y="18" width="12" height="12"/><rect class="c c8" x="322" y="34" width="12" height="12"/><rect class="c c9" x="322" y="50" width="12" height="12"/><rect class="c" x="322" y="66" width="12" height="12"/><rect class="c" x="322" y="82" width="12" height="12"/><rect class="c ca" x="322" y="98" width="12" height="12"/><rect class="c cb" x="338" y="2" width="12" height="12"/><rect class="c cc" x="338" y="18" width="12" height="12"/><rect class="c" x="338" y="34" width="12" height="12"/><rect class="c" x="338" y="50" width="12" height="12"/><rect class="c" x="338" y="66" width="12" height="12"/><rect class="c" x="338" y="82" width="12" height="12"/><rect class="c" x="338" y="98" width="12" height="12"/><rect class="c" x="354" y="2" width="12" height="12"/><rect class="c" x="354" y="18" width="12" height="12"/><rect class="c" x="354" y="34" width="12" height="12"/><rect class="c cd" x="354" y="50" width="12" height="12"/><rect class="c" x="354" y="66" width="12" height="12"/><rect class="c" x="354" y="82" width="12" height="12"/><rect class="c" x="354" y="98" width="12" height="12"/><rect class="c" x="370" y="2" width="12" height="12"/><rect class="c" x="370" y="18" width="12" height="12"/><rect class="c" x="370" y="34" width="12" height="12"/><rect class="c" x="370" y="50" width="12" height="12"/><rect class="c" x="370" y="66" width="12" height="12"/><rect class="c" x="370" y="82" width="12" height="12"/><rect class="c ce" x="370" y="98" width="12" height="12"/><rect class="c cf" x="386" y="2" width="12" height="12"/><rect class="c cg" x="386" y="18" width="12" height="12"/><rect class="c ch" x="386" y="34" width="12" height="12"/><rect class="c ci" x="386" y="50" width="12" height="12"/><rect class="c cj" x="386" y="66" width="12" height="12"/><rect class="c ck" x="386" y="82" width="12" height="12"/><rect class="c" x="386" y="98" width="12" height="12"/><rect class="c" x="402" y="2" width="12" height="12"/><rect class="c" x="402" y="18" width="12" height="12"/><rect class="c" x="402" y="34" width="12" height="12"/><rect class="c cl" x="402" y="50" width="12" height="12"/><rect class="c" x="402" y="66" width="12" height="12"/><rect class="c" x="402" y="82" width="12" height="12"/><rect class="c" x="402" y="98" width="12" height="12"/><rect class="c" x="418" y="2" width="12" height="12"/><rect class="c" x="418" y="18" width="12" height="12"/><rect class="c" x="418" y="34" width="12" height="12"/><rect class="c cm" x="418" y="50" width="12" height="12"/><rect class="c cn" x="418" y="66" width="12" height="12"/><rect class="c" x="418" y="82" width="12" height="12"/><rect class="c" x="418" y="98" width="12" height="12"/><rect class="c" x="434" y="2" width="12" height="12"/><rect class="c" x="434" y="18" width="12" height="12"/><rect class="c" x="434" y="34" width="12" height="12"/><rect class="c" x="434" y="50" width="12" height="12"/><rect class="c co" x="434" y="66" width="12" height="12"/><rect class="c cp" x="434" y="82" width="12" height="12"/><rect class="c" x="434" y="98" width="12" height="12"/><rect class="c" x="450" y="2" width="12" height="12"/><rect class="c" x="450" y="18" width="12" height="12"/><rect class="c" x="450" y="34" width="12" height="12"/><rect class="c" x="450" y="50" width="12" height="12"/><rect class="c" x="450" y="66" width="12" height="12"/><rect class="c" x="450" y="82" width="12" height="12"/><rect class="c" x="450" y="98" width="12" height="12"/><rect class="c" x="466" y="2" width="12" height="12"/><rect class="c" x="466" y="18" width="12" height="12"/><rect class="c" x="466" y="34" width="12" height="12"/><rect class="c" x="466" y="50" width="12" height="12"/><rect class="c" x="466" y="66" width="12" height="12"/><rect class="c" x="466" y="82" width="12" height="12"/><rect class="c" x="466" y="98" width="12" height="12"/><rect class="c" x="482" y="2" width="12" height="12"/><rect class="c" x="482" y="18" width="12" height="12"/><rect class="c" x="482" y="34" width="12" height="12"/><rect class="c" x="482" y="50" width="12" height="12"/><rect class="c" x="482" y="66" width="12" height="12"/><rect class="c" x="482" y="82" width="12" height="12"/><rect class="c" x="482" y="98" width="12" height="12"/><rect class="c" x="498" y="2" width="12" height="12"/><rect class="c" x="498" y="18" width="12" height="12"/><rect class="c" x="498" y="34" width="12" height="12"/><rect class="c" x="498" y="50" width="12" height="12"/><rect class="c" x="498" y="66" width="12" height="12"/><rect class="c" x="498" y="82" width="12" height="12"/><rect class="c" x="498" y="98" width="12" height="12"/><rect class="c" x="514" y="2" width="12" height="12"/><rect class="c" x="514" y="18" width="12" height="12"/><rect class="c" x="514" y="34" width="12" height="12"/><rect class="c" x="514" y="50" width="12" height="12"/><rect class="c" x="514" y="66" width="12" height="12"/><rect class="c" x="514" y="82" width="12" height="12"/><rect class="c" x="514" y="98" width="12" height="12"/><rect class="c" x="530" y="2" width="12" height="12"/><rect class="c" x="530" y="18" width="12" height="12"/><rect class="c" x="530" y="34" width="12" height="12"/><rect class="c" x="530" y="50" width="12" height="12"/><rect class="c" x="530" y="66" width="12" height="12"/><rect class="c" x="530" y="82" width="12" height="12"/><rect class="c" x="530" y="98" width="12" height="12"/><rect class="c" x="546" y="2" width="12" height="12"/><rect class="c" x="546" y="18" width="12" height="12"/><rect class="c" x="546" y="34" width="12" height="12"/><rect class="c" x="546" y="50" width="12" height="12"/><rect class="c" x="546" y="66" width="12" height="12"/><rect class="c" x="546" y="82" width="12" height="12"/><rect class="c" x="546" y="98" width="12" height="12"/><rect class="c" x="562" y="2" width="12" height="12"/><rect class="c" x="562" y="18" width="12" height="12"/><rect class="c" x="562" y="34" width="12" height="12"/><rect class="c" x="562" y="50" width="12" height="12"/><rect class="c" x="562" y="66" width="12" height="12"/><rect class="c" x="562" y="82" width="12" height="12"/><rect class="c" x="562" y="98" width="12" height="12"/><rect class="c" x="578" y="2" width="12" height="12"/><rect class="c" x="578" y="18" width="12" height="12"/><rect class="c" x="578" y="34" width="12" height="12"/><rect class="c" x="578" y="50" width="12" height="12"/><rect class="c" x="578" y="66" width="12" height="12"/><rect class="c" x="578" y="82" width="12" height="12"/><rect class="c" x="578" y="98" width="12" height="12"/><rect class="c" x="594" y="2" width="12" height="12"/><rect class="c" x="594" y="18" width="12" height="12"/><rect class="c" x="594" y="34" width="12" height="12"/><rect class="c" x="594" y="50" width="12" height="12"/><rect class="c" x="594" y="66" width="12" height="12"/><rect class="c" x="594" y="82" width="12" height="12"/><rect class="c" x="594" y="98" width="12" height="12"/><rect class="c" x="610" y="2" width="12" height="12"/><rect class="c" x="610" y="18" width="12" height="12"/><rect class="c" x="610" y="34" width="12" height="12"/><rect class="c" x="610" y="50" width="12" height="12"/><rect class="c" x="610" y="66" width="12" height="12"/><rect class="c" x="610" y="82" width="12" height="12"/><rect class="c" x="610" y="98" width="12" height="12"/><rect class="c" x="626" y="2" width="12" height="12"/><rect class="c" x="626" y="18" width="12" height="12"/><rect class="c" x="626" y="34" width="12" height="12"/><rect class="c" x="626" y="50" width="12" height="12"/><rect class="c" x="626" y="66" width="12" height="12"/><rect class="c" x="626" y="82" width="12" height="12"/><rect class="c" x="626" y="98" width="12" height="12"/><rect class="c" x="642" y="2" width="12" height="12"/><rect class="c" x="642" y="18" width="12" height="12"/><rect class="c" x="642" y="34" width="12" height="12"/><rect class="c" x="642" y="50" width="12" height="12"/><rect class="c" x="642" y="66" width="12" height="12"/><rect class="c" x="642" y="82" width="12" height="12"/><rect class="c" x="642" y="98" width="12" height="12"/><rect class="c" x="658" y="2" width="12" height="12"/><rect class="c" x="658" y="18" width="12" height="12"/><rect class="c" x="658" y="34" width="12" height="12"/><rect class="c" x="658" y="50" width="12" height="12"/><rect class="c" x="658" y="66" width="12" height="12"/><rect class="c" x="658" y="82" width="12" height="12"/><rect class="c" x="658" y="98" width="12" height="12"/><rect class="c" x="674" y="2" width="12" height="12"/><rect class="c" x="674" y="18" width="12" height="12"/><rect class="c" x="674" y="34" width="12" height="12"/><rect class="c" x="674" y="50" width="12" height="12"/><rect class="c" x="674" y="66" width="12" height="12"/><rect class="c cq" x="674" y="82" width="12" height="12"/><rect class="c" x="674" y="98" width="12" height="12"/><rect class="c" x="690" y="2" width="12" height="12"/><rect class="c" x="690" y="18" width="12" height="12"/><rect class="c" x="690" y="34" width="12" height="12"/><rect class="c" x="690" y="50" width="12" height="12"/><rect class="c" x="690" y="66" width="12" height="12"/><rect class="c" x="690" y="82" width="12" height="12"/><rect class="c" x="690" y="98" width="12" height="12"/><rect class="c" x="706" y="2" width="12" height="12"/><rect class="c" x="706" y="18" width="12" height="12"/><rect class="c" x="706" y="34" width="12" height="12"/><rect class="c" x="706" y="50" width="12" height="12"/><rect class="c" x="706" y="66" width="12" height="12"/><rect class="c" x="706" y="82" width="12" height="12"/><rect class="c" x="706" y="98" width="12" height="12"/><rect class="c cr" x="722" y="2" width="12" height="12"/><rect class="c cs" x="722" y="18" width="12" height="12"/><rect class="c ct" x="722" y="34" width="12" height="12"/><rect class="c" x="722" y="50" width="12" height="12"/><rect class="c" x="722" y="66" width="12" height="12"/><rect class="c" x="722" y="82" width="12" height="12"/><rect class="c cu" x="722" y="98" width="12" height="12"/><rect class="c cv" x="738" y="2" width="12" height="12"/><rect class="c cw" x="738" y="18" width="12" height="12"/><rect class="c" x="738" y="34" width="12" height="12"/><rect class="c" x="738" y="50" width="12" height="12"/><rect class="c" x="738" y="66" width="12" height="12"/><rect class="c" x="738" y="82" width="12" height="12"/><rect class="c" x="738" y="98" width="12" height="12"/><rect class="c" x="754" y="2" width="12" height="12"/><rect class="c" x="754" y="18" width="12" height="12"/><rect class="c" x="754" y="34" width="12" height="12"/><rect class="c" x="754" y="50" width="12" height="12"/><rect class="c" x="754" y="66" width="12" height="12"/><rect class="c" x="754" y="82" width="12" height="12"/><rect class="c" x="754" y="98" width="12" height="12"/><rect class="c" x="770" y="2" width="12" height="12"/><rect class="c" x="770" y="18" width="12" height="12"/><rect class="c" x="770" y="34" width="12" height="12"/><rect class="c" x="770" y="50" width="12" height="12"/><rect class="c" x="770" y="66" width="12" height="12"/><rect class="c" x="770" y="82" width="12" height="12"/><rect class="c" x="770" y="98" width="12" height="12"/><rect class="c" x="786" y="2" width="12" height="12"/><rect class="c" x="786" y="18" width="12" height="12"/><rect class="c" x="786" y="34" width="12" height="12"/><rect class="c" x="786" y="50" width="12" height="12"/><rect class="c" x="786" y="66" width="12" height="12"/><rect class="c" x="786" y="82" width="12" height="12"/><rect class="c" x="786" y="98" width="12" height="12"/><rect class="c" x="802" y="2" width="12" height="12"/><rect class="c" x="802" y="18" width="12" height="12"/><rect class="c" x="802" y="34" width="12" height="12"/><rect class="c" x="802" y="50" width="12" height="12"/><rect class="c" x="802" y="66" width="12" height="12"/><rect class="c" x="802" y="82" width="12" height="12"/><rect class="c" x="802" y="98" width="12" height="12"/><rect class="c" x="818" y="2" width="12" height="12"/><rect class="c cx" x="818" y="18" width="12" height="12"/><rect class="c" x="818" y="34" width="12" height="12"/><rect class="c" x="818" y="50" width="12" height="12"/><rect class="c" x="818" y="66" width="12" height="12"/><rect class="c" x="818" y="82" width="12" height="12"/><rect class="c" x="818" y="98" width="12" height="12"/><rect class="c" x="834" y="2" width="12" height="12"/><rect class="c" x="834" y="18" width="12" height="12"/><rect class="c cy" x="834" y="34" width="12" height="12"/><rect class="c cz" x="834" y="50" width="12" height="12"/><rect class="u u0" height="12" width="401.0" x="0.0" y="144"/><rect class="u u1" height="12" width="236.2" x="400.4" y="144"/><rect class="u u2" height="12" width="47.7" x="636.0" y="144"/><rect class="u u3" height="12" width="165.5" x="683.1" y="144"/><rect class="s s0" x="0.8" y="0.8" width="14.4" height="14.4" rx="4.5" ry="4.5"/><rect class="s s1" x="1.8" y="1.8" width="12.3" height="12.3" rx="4.1" ry="4.1"/><rect class="s s2" x="2.6" y="2.6" width="10.8" height="10.8" rx="3.6" ry="3.6"/><rect class="s s3" x="3.0" y="3.0" width="9.9" height="9.9" rx="3.3" ry="3.3"/></svg>